<svg xmlns="http://www.w3.org/2000/svg" width="733" height="614" fill="none"><mask id="b" width="733" height="673" x="0" y="0" maskUnits="userSpaceOnUse" style="mask-type:alpha"><path fill="url(#a)" d="M0 0h733v673H0z"/></mask><g stroke="#DDD6FE" mask="url(#b)"><path fill="#fff" d="M-12 1h84v84h-84z"/><path fill="#DDD6FE" d="M73 1h84v84H73z"/><path fill="#fff" d="M157 1h84v84h-84zM241 1h84v84h-84zM325 1h84v84h-84z"/><path fill="#DDD6FE" d="M409 1h84v84h-84z"/><path fill="#fff" d="M493 1h84v84h-84zM577 1h84v84h-84zM661 1h84v84h-84z"/><path fill="#DDD6FE" d="M-12 85h84v84h-84z"/><path fill="#fff" d="M73 85h84v84H73zM157 85h84v84h-84zM241 85h84v84h-84zM325 85h84v84h-84zM409 85h84v84h-84zM493 85h84v84h-84zM577 85h84v84h-84zM661 85h84v84h-84zM-12 169h84v84h-84zM73 169h84v84H73zM157 169h84v84h-84zM241 169h84v84h-84zM325 169h84v84h-84zM409 169h84v84h-84zM493 169h84v84h-84zM577 169h84v84h-84z"/><path fill="#DDD6FE" d="M661 169h84v84h-84z"/><path fill="#fff" d="M-12 253h84v84h-84zM73 253h84v84H73zM157 253h84v84h-84zM241 253h84v84h-84zM325 253h84v84h-84zM409 253h84v84h-84zM493 253h84v84h-84zM577 253h84v84h-84zM661 253h84v84h-84zM-12 337h84v84h-84zM73 337h84v84H73z"/><path fill="#DDD6FE" d="M157 337h84v84h-84z"/><path fill="#fff" d="M241 337h84v84h-84zM325 337h84v84h-84zM409 337h84v84h-84zM493 337h84v84h-84z"/><path fill="#DDD6FE" d="M577 337h84v84h-84z"/><path fill="#fff" d="M661 337h84v84h-84zM-12 421h84v84h-84zM73 421h84v84H73zM157 421h84v84h-84zM241 421h84v84h-84zM325 421h84v84h-84zM409 421h84v84h-84zM493 421h84v84h-84zM577 421h84v84h-84zM661 421h84v84h-84zM-12 505h84v84h-84zM73 505h84v84H73zM157 505h84v84h-84zM241 505h84v84h-84zM325 505h84v84h-84zM409 505h84v84h-84zM493 505h84v84h-84zM577 505h84v84h-84zM661 505h84v84h-84zM-12 589h84v84h-84zM73 589h84v84H73zM157 589h84v84h-84zM241 589h84v84h-84zM325 589h84v84h-84zM409 589h84v84h-84zM493 589h84v84h-84zM577 589h84v84h-84zM661 589h84v84h-84z"/></g><defs><radialGradient id="a" cx="0" cy="0" r="1" gradientTransform="matrix(0 336.5 -366.5 0 367 337)" gradientUnits="userSpaceOnUse"><stop offset="0%" stop-color="#2563EB"/><stop offset="1" stop-color="#fff" stop-opacity="0"/></radialGradient></defs></svg>